<svg xmlns="http://www.w3.org/2000/svg" xmlns:xlink="http://www.w3.org/1999/xlink" width="500" zoomAndPan="magnify" viewBox="0 0 375 374.999991" height="500" preserveAspectRatio="xMidYMid meet" version="1.0"><defs><filter x="0%" y="0%" width="100%" height="100%" id="9b9d2addd0"><feColorMatrix values="0 0 0 0 1 0 0 0 0 1 0 0 0 0 1 0 0 0 1 0" color-interpolation-filters="sRGB"></feColorMatrix></filter><filter x="0%" y="0%" width="100%" height="100%" id="6e8da6db3c"><feColorMatrix values="0 0 0 0 1 0 0 0 0 1 0 0 0 0 1 0.2126 0.7152 0.0722 0 0" color-interpolation-filters="sRGB"></feColorMatrix></filter><g></g><clipPath id="11f2d60919"><path d="M 100 40.0625 L 275 40.0625 L 275 271.8125 L 100 271.8125 Z M 100 40.0625 " clip-rule="nonzero"></path></clipPath><mask id="a7283cde49"><g filter="url(#9b9d2addd0)"><g filter="url(#6e8da6db3c)" transform="matrix(0.161157, 0, 0, 0.160937, 99.875153, 40.060778)"><image x="0" y="0" width="1089" height="1440" preserveAspectRatio="xMidYMid meet"></image></g></g></mask><clipPath id="31303e064b"><path d="M 85 28 L 196.792969 28 L 196.792969 140.589844 L 85 140.589844 Z M 85 28 " clip-rule="nonzero"></path></clipPath><clipPath id="5cceb642f7"><path d="M 74.542969 16.089844 L 96 16.089844 L 96 39 L 74.542969 39 Z M 74.542969 16.089844 " clip-rule="nonzero"></path></clipPath><clipPath id="fb998123ec"><path d="M 0.078125 3 L 6 3 L 6 10 L 0.078125 10 Z M 0.078125 3 " clip-rule="nonzero"></path></clipPath><clipPath id="36e28d16dd"><path d="M 103 0.761719 L 110 0.761719 L 110 10 L 103 10 Z M 103 0.761719 " clip-rule="nonzero"></path></clipPath><clipPath id="089f7767ad"><path d="M 177 0.761719 L 180 0.761719 L 180 10 L 177 10 Z M 177 0.761719 " clip-rule="nonzero"></path></clipPath><clipPath id="3298cb064e"><rect x="0" width="190" y="0" height="13"></rect></clipPath><clipPath id="63a12b63d5"><path d="M 196.433594 234.371094 L 318.683594 234.371094 L 318.683594 358.871094 L 196.433594 358.871094 Z M 196.433594 234.371094 " clip-rule="nonzero"></path></clipPath><clipPath id="ff892acebb"><path d="M 0.433594 0.40625 L 112 0.40625 L 112 113 L 0.433594 113 Z M 0.433594 0.40625 " clip-rule="nonzero"></path></clipPath><clipPath id="f87d2a1731"><path d="M 101 102 L 122.320312 102 L 122.320312 124.871094 L 101 124.871094 Z M 101 102 " clip-rule="nonzero"></path></clipPath><clipPath id="f081ca676e"><rect x="0" width="123" y="0" height="125"></rect></clipPath></defs><g clip-path="url(#11f2d60919)"><g mask="url(#a7283cde49)"><g transform="matrix(0.161157, 0, 0, 0.160937, 99.875153, 40.060778)"><image x="0" y="0" width="1089" height="1440" preserveAspectRatio="xMidYMid meet"></image></g></g></g><g clip-path="url(#31303e064b)"><path stroke-linecap="round" transform="matrix(0.0329847, 0, 0, 0.0328774, 69.697793, 12.586988)" fill="none" stroke-linejoin="round" d="M 485.117205 3879.67995 L 485.117205 486.149871 L 3839.185817 486.149871 " stroke="#000000" stroke-width="27.549999" stroke-opacity="1" stroke-miterlimit="4"></path></g><path stroke-linecap="round" transform="matrix(0.0329847, 0, 0, 0.0328774, 69.697793, 12.586988)" fill="none" stroke-linejoin="round" d="M 575.121165 1223.383053 L 575.121165 579.06145 L 1177.910842 579.06145 " stroke="#000000" stroke-width="27.549999" stroke-opacity="1" stroke-miterlimit="4"></path><g clip-path="url(#5cceb642f7)"><path stroke-linecap="round" transform="matrix(0.0329847, 0, 0, 0.0328774, 69.697793, 12.586988)" fill="none" stroke-linejoin="round" d="M 763.655775 120.32538 L 763.655775 764.765796 L 160.866098 764.765796 " stroke="#000000" stroke-width="27.549999" stroke-opacity="1" stroke-miterlimit="4"></path></g><g fill="#000000" fill-opacity="1"><g transform="translate(93.699264, 301.514102)"><g><path d="M 15.40625 -15.1875 L 15.40625 0.5 L 15.34375 0.5 L 4.203125 -10.8125 L 4.234375 0 L 2.1875 0 L 2.1875 -15.640625 L 2.28125 -15.640625 L 13.421875 -4.203125 L 13.375 -15.1875 Z M 15.40625 -15.1875 "></path></g></g></g><g fill="#000000" fill-opacity="1"><g transform="translate(114.584421, 301.514102)"><g><path d="M 10.140625 -3.984375 L 4.3125 -3.984375 L 2.6875 0 L 0.671875 0 L 7.3125 -15.8125 L 7.4375 -15.8125 L 14.0625 0 L 11.71875 0 Z M 9.453125 -5.75 L 7.28125 -11.296875 L 5.046875 -5.75 Z M 9.453125 -5.75 "></path></g></g></g><g fill="#000000" fill-opacity="1"><g transform="translate(131.397611, 301.514102)"><g><path d="M 11.15625 -15.1875 L 11.15625 -13.234375 L 7.078125 -13.234375 L 7.078125 0 L 5.046875 0 L 5.046875 -13.234375 L 1.078125 -13.234375 L 1.078125 -15.1875 Z M 11.15625 -15.1875 "></path></g></g></g><g fill="#000000" fill-opacity="1"><g transform="translate(146.909767, 301.514102)"><g><path d="M 4.03125 -5.375 C 4.03125 -4.707031 4.191406 -4.101562 4.515625 -3.5625 C 4.835938 -3.019531 5.273438 -2.59375 5.828125 -2.28125 C 6.378906 -1.96875 6.992188 -1.8125 7.671875 -1.8125 C 8.367188 -1.8125 9 -1.960938 9.5625 -2.265625 C 10.132812 -2.578125 10.578125 -3.003906 10.890625 -3.546875 C 11.210938 -4.097656 11.375 -4.707031 11.375 -5.375 L 11.375 -15.1875 L 13.375 -15.1875 L 13.375 -5.3125 C 13.375 -4.238281 13.117188 -3.285156 12.609375 -2.453125 C 12.109375 -1.617188 11.425781 -0.972656 10.5625 -0.515625 C 9.695312 -0.0546875 8.734375 0.171875 7.671875 0.171875 C 6.617188 0.171875 5.65625 -0.0546875 4.78125 -0.515625 C 3.914062 -0.972656 3.234375 -1.617188 2.734375 -2.453125 C 2.242188 -3.285156 2 -4.238281 2 -5.3125 L 2 -15.1875 L 4.03125 -15.1875 Z M 4.03125 -5.375 "></path></g></g></g><g fill="#000000" fill-opacity="1"><g transform="translate(165.57017, 301.514102)"><g><path d="M 14.34375 0.671875 L 10.796875 -8.40625 L 6.90625 0.71875 L 0.859375 -15.125 L 3.234375 -15.125 L 7.15625 -4.078125 L 9.78125 -10.96875 L 8.171875 -15.125 L 10.1875 -15.125 L 14.40625 -4.3125 L 18.140625 -15.125 L 20.328125 -15.125 Z M 14.34375 0.671875 "></path></g></g></g><g fill="#000000" fill-opacity="1"><g transform="translate(188.113016, 301.514102)"><g><path d="M 10.140625 -3.984375 L 4.3125 -3.984375 L 2.6875 0 L 0.671875 0 L 7.3125 -15.8125 L 7.4375 -15.8125 L 14.0625 0 L 11.71875 0 Z M 9.453125 -5.75 L 7.28125 -11.296875 L 5.046875 -5.75 Z M 9.453125 -5.75 "></path></g></g></g><g fill="#000000" fill-opacity="1"><g transform="translate(206.122776, 301.514102)"><g></g></g></g><g fill="#000000" fill-opacity="1"><g transform="translate(216.052047, 301.514102)"><g><path d="M 13.328125 -1.140625 C 12.835938 -0.816406 12.21875 -0.515625 11.46875 -0.234375 C 10.726562 0.0351562 9.914062 0.171875 9.03125 0.171875 C 7.476562 0.171875 6.109375 -0.171875 4.921875 -0.859375 C 3.742188 -1.546875 2.832031 -2.46875 2.1875 -3.625 C 1.550781 -4.789062 1.234375 -6.070312 1.234375 -7.46875 C 1.234375 -8.96875 1.554688 -10.316406 2.203125 -11.515625 C 2.847656 -12.710938 3.738281 -13.648438 4.875 -14.328125 C 6.019531 -15.003906 7.3125 -15.34375 8.75 -15.34375 C 9.601562 -15.34375 10.398438 -15.226562 11.140625 -15 C 11.890625 -14.78125 12.554688 -14.492188 13.140625 -14.140625 L 12.328125 -12.21875 C 11.160156 -13 9.988281 -13.390625 8.8125 -13.390625 C 7.832031 -13.390625 6.925781 -13.128906 6.09375 -12.609375 C 5.257812 -12.097656 4.59375 -11.394531 4.09375 -10.5 C 3.601562 -9.613281 3.359375 -8.640625 3.359375 -7.578125 C 3.359375 -6.484375 3.582031 -5.492188 4.03125 -4.609375 C 4.488281 -3.734375 5.140625 -3.046875 5.984375 -2.546875 C 6.835938 -2.054688 7.816406 -1.8125 8.921875 -1.8125 C 10.285156 -1.8125 11.46875 -2.195312 12.46875 -2.96875 Z M 13.328125 -1.140625 "></path></g></g></g><g fill="#000000" fill-opacity="1"><g transform="translate(233.914889, 301.514102)"><g><path d="M 10.140625 -3.984375 L 4.3125 -3.984375 L 2.6875 0 L 0.671875 0 L 7.3125 -15.8125 L 7.4375 -15.8125 L 14.0625 0 L 11.71875 0 Z M 9.453125 -5.75 L 7.28125 -11.296875 L 5.046875 -5.75 Z M 9.453125 -5.75 "></path></g></g></g><g fill="#000000" fill-opacity="1"><g transform="translate(251.924649, 301.514102)"><g><path d="M 11.1875 -15.1875 L 11.1875 -13.234375 L 4.21875 -13.234375 L 4.21875 -8.40625 L 10.328125 -8.40625 L 10.328125 -6.453125 L 4.21875 -6.453125 L 4.21875 0 L 2.1875 0 L 2.1875 -15.1875 Z M 11.1875 -15.1875 "></path></g></g></g><g fill="#000000" fill-opacity="1"><g transform="translate(267.583725, 301.514102)"><g><path d="M 12.046875 -15.1875 L 12.046875 -13.234375 L 4.21875 -13.234375 L 4.21875 -8.609375 L 11.21875 -8.609375 L 11.21875 -6.65625 L 4.21875 -6.65625 L 4.21875 -1.96875 L 12.34375 -1.96875 L 12.34375 0 L 2.1875 0 L 2.1875 -15.1875 Z M 7.625 -16.15625 L 6.359375 -16.15625 L 8.109375 -18.96875 L 10.296875 -18.96875 Z M 7.625 -16.15625 "></path></g></g></g><g transform="matrix(1, 0, 0, 1, 94, 305)"><g clip-path="url(#3298cb064e)"><g clip-path="url(#fb998123ec)"><g fill="#000000" fill-opacity="1"><g transform="translate(0.520836, 9.442956)"><g><path d="M 3.671875 -1.25 C 3.878906 -1.25 4.082031 -1.28125 4.28125 -1.34375 C 4.476562 -1.40625 4.625 -1.46875 4.71875 -1.53125 L 4.859375 -1.625 L 5.4375 -0.453125 C 5.414062 -0.429688 5.390625 -0.410156 5.359375 -0.390625 C 5.328125 -0.367188 5.25 -0.320312 5.125 -0.25 C 5 -0.1875 4.863281 -0.128906 4.71875 -0.078125 C 4.582031 -0.0234375 4.394531 0.015625 4.15625 0.046875 C 3.925781 0.0859375 3.691406 0.109375 3.453125 0.109375 C 2.890625 0.109375 2.351562 -0.0234375 1.84375 -0.296875 C 1.34375 -0.578125 0.9375 -0.957031 0.625 -1.4375 C 0.320312 -1.925781 0.171875 -2.453125 0.171875 -3.015625 C 0.171875 -3.441406 0.257812 -3.847656 0.4375 -4.234375 C 0.625 -4.628906 0.863281 -4.96875 1.15625 -5.25 C 1.457031 -5.53125 1.804688 -5.753906 2.203125 -5.921875 C 2.609375 -6.085938 3.023438 -6.171875 3.453125 -6.171875 C 3.847656 -6.171875 4.207031 -6.125 4.53125 -6.03125 C 4.863281 -5.9375 5.097656 -5.84375 5.234375 -5.75 L 5.4375 -5.609375 L 4.859375 -4.4375 C 4.816406 -4.46875 4.757812 -4.503906 4.6875 -4.546875 C 4.625 -4.585938 4.488281 -4.640625 4.28125 -4.703125 C 4.082031 -4.773438 3.878906 -4.8125 3.671875 -4.8125 C 3.335938 -4.8125 3.035156 -4.753906 2.765625 -4.640625 C 2.503906 -4.535156 2.296875 -4.394531 2.140625 -4.21875 C 1.984375 -4.039062 1.863281 -3.847656 1.78125 -3.640625 C 1.707031 -3.441406 1.671875 -3.238281 1.671875 -3.03125 C 1.671875 -2.570312 1.84375 -2.160156 2.1875 -1.796875 C 2.53125 -1.429688 3.023438 -1.25 3.671875 -1.25 Z M 3.671875 -1.25 "></path></g></g></g></g><g fill="#000000" fill-opacity="1"><g transform="translate(7.910605, 9.442956)"><g><path d="M 0.171875 -3.03125 C 0.171875 -3.90625 0.46875 -4.644531 1.0625 -5.25 C 1.65625 -5.863281 2.375 -6.171875 3.21875 -6.171875 C 4.070312 -6.171875 4.789062 -5.867188 5.375 -5.265625 C 5.96875 -4.660156 6.265625 -3.914062 6.265625 -3.03125 C 6.265625 -2.144531 5.972656 -1.398438 5.390625 -0.796875 C 4.816406 -0.191406 4.09375 0.109375 3.21875 0.109375 C 2.332031 0.109375 1.601562 -0.1875 1.03125 -0.78125 C 0.457031 -1.382812 0.171875 -2.132812 0.171875 -3.03125 Z M 1.65625 -3.03125 C 1.65625 -2.71875 1.703125 -2.425781 1.796875 -2.15625 C 1.898438 -1.894531 2.070312 -1.671875 2.3125 -1.484375 C 2.5625 -1.304688 2.863281 -1.21875 3.21875 -1.21875 C 3.738281 -1.21875 4.128906 -1.394531 4.390625 -1.75 C 4.648438 -2.101562 4.78125 -2.53125 4.78125 -3.03125 C 4.78125 -3.53125 4.644531 -3.957031 4.375 -4.3125 C 4.113281 -4.664062 3.726562 -4.84375 3.21875 -4.84375 C 2.71875 -4.84375 2.332031 -4.664062 2.0625 -4.3125 C 1.789062 -3.957031 1.65625 -3.53125 1.65625 -3.03125 Z M 1.65625 -3.03125 "></path></g></g></g><g fill="#000000" fill-opacity="1"><g transform="translate(16.210345, 9.442956)"><g><path d="M 2.671875 -6.171875 C 3.003906 -6.171875 3.328125 -6.117188 3.640625 -6.015625 C 3.953125 -5.921875 4.179688 -5.832031 4.328125 -5.75 L 4.546875 -5.59375 L 4 -4.5 C 3.945312 -4.519531 3.878906 -4.550781 3.796875 -4.59375 C 3.722656 -4.644531 3.578125 -4.707031 3.359375 -4.78125 C 3.148438 -4.863281 2.953125 -4.90625 2.765625 -4.90625 C 2.535156 -4.90625 2.359375 -4.859375 2.234375 -4.765625 C 2.109375 -4.671875 2.046875 -4.539062 2.046875 -4.375 C 2.046875 -4.289062 2.070312 -4.210938 2.125 -4.140625 C 2.1875 -4.066406 2.289062 -3.988281 2.4375 -3.90625 C 2.582031 -3.832031 2.707031 -3.769531 2.8125 -3.71875 C 2.914062 -3.664062 3.082031 -3.59375 3.3125 -3.5 C 3.707031 -3.332031 4.039062 -3.101562 4.3125 -2.8125 C 4.59375 -2.53125 4.734375 -2.207031 4.734375 -1.84375 C 4.734375 -1.5 4.671875 -1.195312 4.546875 -0.9375 C 4.421875 -0.675781 4.25 -0.472656 4.03125 -0.328125 C 3.8125 -0.179688 3.566406 -0.0703125 3.296875 0 C 3.035156 0.0703125 2.753906 0.109375 2.453125 0.109375 C 2.179688 0.109375 1.914062 0.0820312 1.65625 0.03125 C 1.40625 -0.0195312 1.191406 -0.0859375 1.015625 -0.171875 C 0.847656 -0.253906 0.695312 -0.332031 0.5625 -0.40625 C 0.425781 -0.488281 0.328125 -0.554688 0.265625 -0.609375 L 0.171875 -0.6875 L 0.859375 -1.84375 C 0.921875 -1.800781 1 -1.738281 1.09375 -1.65625 C 1.195312 -1.582031 1.378906 -1.484375 1.640625 -1.359375 C 1.910156 -1.234375 2.144531 -1.171875 2.34375 -1.171875 C 2.925781 -1.171875 3.21875 -1.367188 3.21875 -1.765625 C 3.21875 -1.847656 3.195312 -1.921875 3.15625 -1.984375 C 3.113281 -2.054688 3.039062 -2.128906 2.9375 -2.203125 C 2.832031 -2.273438 2.738281 -2.332031 2.65625 -2.375 C 2.570312 -2.414062 2.4375 -2.476562 2.25 -2.5625 C 2.070312 -2.644531 1.9375 -2.710938 1.84375 -2.765625 C 1.476562 -2.941406 1.195312 -3.164062 1 -3.4375 C 0.800781 -3.707031 0.703125 -4 0.703125 -4.3125 C 0.703125 -4.863281 0.898438 -5.3125 1.296875 -5.65625 C 1.703125 -6 2.160156 -6.171875 2.671875 -6.171875 Z M 2.671875 -6.171875 "></path></g></g></g><g fill="#000000" fill-opacity="1"><g transform="translate(23.005705, 9.442956)"><g><path d="M 3.90625 -6.0625 L 3.90625 -4.84375 L 1.828125 -4.84375 L 1.828125 -3.640625 L 3.8125 -3.640625 L 3.8125 -2.4375 L 1.828125 -2.4375 L 1.828125 -1.21875 L 3.90625 -1.21875 L 3.90625 0 L 0.4375 0 L 0.4375 -6.0625 Z M 3.90625 -6.0625 "></path></g></g></g><g fill="#000000" fill-opacity="1"><g transform="translate(29.125933, 9.442956)"><g><path d="M 3.671875 -1.25 C 3.878906 -1.25 4.082031 -1.28125 4.28125 -1.34375 C 4.476562 -1.40625 4.625 -1.46875 4.71875 -1.53125 L 4.859375 -1.625 L 5.4375 -0.453125 C 5.414062 -0.429688 5.390625 -0.410156 5.359375 -0.390625 C 5.328125 -0.367188 5.25 -0.320312 5.125 -0.25 C 5 -0.1875 4.863281 -0.128906 4.71875 -0.078125 C 4.582031 -0.0234375 4.394531 0.015625 4.15625 0.046875 C 3.925781 0.0859375 3.691406 0.109375 3.453125 0.109375 C 2.890625 0.109375 2.351562 -0.0234375 1.84375 -0.296875 C 1.34375 -0.578125 0.9375 -0.957031 0.625 -1.4375 C 0.320312 -1.925781 0.171875 -2.453125 0.171875 -3.015625 C 0.171875 -3.441406 0.257812 -3.847656 0.4375 -4.234375 C 0.625 -4.628906 0.863281 -4.96875 1.15625 -5.25 C 1.457031 -5.53125 1.804688 -5.753906 2.203125 -5.921875 C 2.609375 -6.085938 3.023438 -6.171875 3.453125 -6.171875 C 3.847656 -6.171875 4.207031 -6.125 4.53125 -6.03125 C 4.863281 -5.9375 5.097656 -5.84375 5.234375 -5.75 L 5.4375 -5.609375 L 4.859375 -4.4375 C 4.816406 -4.46875 4.757812 -4.503906 4.6875 -4.546875 C 4.625 -4.585938 4.488281 -4.640625 4.28125 -4.703125 C 4.082031 -4.773438 3.878906 -4.8125 3.671875 -4.8125 C 3.335938 -4.8125 3.035156 -4.753906 2.765625 -4.640625 C 2.503906 -4.535156 2.296875 -4.394531 2.140625 -4.21875 C 1.984375 -4.039062 1.863281 -3.847656 1.78125 -3.640625 C 1.707031 -3.441406 1.671875 -3.238281 1.671875 -3.03125 C 1.671875 -2.570312 1.84375 -2.160156 2.1875 -1.796875 C 2.53125 -1.429688 3.023438 -1.25 3.671875 -1.25 Z M 3.671875 -1.25 "></path></g></g></g><g fill="#000000" fill-opacity="1"><g transform="translate(36.515702, 9.442956)"><g><path d="M 1.828125 -2.4375 L 1.828125 0 L 0.4375 0 L 0.4375 -6.0625 L 1.828125 -6.0625 L 1.828125 -3.640625 L 3.78125 -3.640625 L 3.78125 -6.0625 L 5.15625 -6.0625 L 5.15625 0 L 3.78125 0 L 3.78125 -2.4375 Z M 1.828125 -2.4375 "></path></g></g></g><g fill="#000000" fill-opacity="1"><g transform="translate(43.971517, 9.442956)"><g><path d="M 3.515625 -6.0625 L 5.96875 0 L 4.484375 0 L 4.03125 -1.21875 L 1.71875 -1.21875 L 1.28125 0 L -0.203125 0 L 2.234375 -6.0625 Z M 3.5625 -2.421875 L 2.890625 -4.1875 L 2.875 -4.1875 L 2.203125 -2.421875 Z M 3.5625 -2.421875 "></path></g></g></g><g fill="#000000" fill-opacity="1"><g transform="translate(51.588781, 9.442956)"><g><path d="M 1.28125 -1.578125 C 1.507812 -1.578125 1.707031 -1.492188 1.875 -1.328125 C 2.039062 -1.160156 2.125 -0.960938 2.125 -0.734375 C 2.125 -0.00390625 1.710938 0.695312 0.890625 1.375 L 0.515625 1.078125 C 0.546875 1.046875 0.585938 1 0.640625 0.9375 C 0.691406 0.882812 0.765625 0.765625 0.859375 0.578125 C 0.960938 0.398438 1.035156 0.222656 1.078125 0.046875 C 0.890625 0.00390625 0.734375 -0.0820312 0.609375 -0.21875 C 0.492188 -0.363281 0.4375 -0.535156 0.4375 -0.734375 C 0.4375 -0.960938 0.519531 -1.160156 0.6875 -1.328125 C 0.851562 -1.492188 1.050781 -1.578125 1.28125 -1.578125 Z M 1.28125 -1.578125 "></path></g></g></g><g fill="#000000" fill-opacity="1"><g transform="translate(56.013833, 9.442956)"><g></g></g></g><g fill="#000000" fill-opacity="1"><g transform="translate(59.734388, 9.442956)"><g><path d="M 2.671875 -6.171875 C 3.003906 -6.171875 3.328125 -6.117188 3.640625 -6.015625 C 3.953125 -5.921875 4.179688 -5.832031 4.328125 -5.75 L 4.546875 -5.59375 L 4 -4.5 C 3.945312 -4.519531 3.878906 -4.550781 3.796875 -4.59375 C 3.722656 -4.644531 3.578125 -4.707031 3.359375 -4.78125 C 3.148438 -4.863281 2.953125 -4.90625 2.765625 -4.90625 C 2.535156 -4.90625 2.359375 -4.859375 2.234375 -4.765625 C 2.109375 -4.671875 2.046875 -4.539062 2.046875 -4.375 C 2.046875 -4.289062 2.070312 -4.210938 2.125 -4.140625 C 2.1875 -4.066406 2.289062 -3.988281 2.4375 -3.90625 C 2.582031 -3.832031 2.707031 -3.769531 2.8125 -3.71875 C 2.914062 -3.664062 3.082031 -3.59375 3.3125 -3.5 C 3.707031 -3.332031 4.039062 -3.101562 4.3125 -2.8125 C 4.59375 -2.53125 4.734375 -2.207031 4.734375 -1.84375 C 4.734375 -1.5 4.671875 -1.195312 4.546875 -0.9375 C 4.421875 -0.675781 4.25 -0.472656 4.03125 -0.328125 C 3.8125 -0.179688 3.566406 -0.0703125 3.296875 0 C 3.035156 0.0703125 2.753906 0.109375 2.453125 0.109375 C 2.179688 0.109375 1.914062 0.0820312 1.65625 0.03125 C 1.40625 -0.0195312 1.191406 -0.0859375 1.015625 -0.171875 C 0.847656 -0.253906 0.695312 -0.332031 0.5625 -0.40625 C 0.425781 -0.488281 0.328125 -0.554688 0.265625 -0.609375 L 0.171875 -0.6875 L 0.859375 -1.84375 C 0.921875 -1.800781 1 -1.738281 1.09375 -1.65625 C 1.195312 -1.582031 1.378906 -1.484375 1.640625 -1.359375 C 1.910156 -1.234375 2.144531 -1.171875 2.34375 -1.171875 C 2.925781 -1.171875 3.21875 -1.367188 3.21875 -1.765625 C 3.21875 -1.847656 3.195312 -1.921875 3.15625 -1.984375 C 3.113281 -2.054688 3.039062 -2.128906 2.9375 -2.203125 C 2.832031 -2.273438 2.738281 -2.332031 2.65625 -2.375 C 2.570312 -2.414062 2.4375 -2.476562 2.25 -2.5625 C 2.070312 -2.644531 1.9375 -2.710938 1.84375 -2.765625 C 1.476562 -2.941406 1.195312 -3.164062 1 -3.4375 C 0.800781 -3.707031 0.703125 -4 0.703125 -4.3125 C 0.703125 -4.863281 0.898438 -5.3125 1.296875 -5.65625 C 1.703125 -6 2.160156 -6.171875 2.671875 -6.171875 Z M 2.671875 -6.171875 "></path></g></g></g><g fill="#000000" fill-opacity="1"><g transform="translate(66.529748, 9.442956)"><g><path d="M 3.90625 -6.0625 L 3.90625 -4.84375 L 1.828125 -4.84375 L 1.828125 -3.640625 L 3.8125 -3.640625 L 3.8125 -2.4375 L 1.828125 -2.4375 L 1.828125 -1.21875 L 3.90625 -1.21875 L 3.90625 0 L 0.4375 0 L 0.4375 -6.0625 Z M 3.90625 -6.0625 "></path></g></g></g><g fill="#000000" fill-opacity="1"><g transform="translate(72.649976, 9.442956)"><g><path d="M 1.828125 -6.0625 L 1.828125 -1.21875 L 3.90625 -1.21875 L 3.90625 0 L 0.4375 0 L 0.4375 -6.0625 Z M 1.828125 -6.0625 "></path></g></g></g><g fill="#000000" fill-opacity="1"><g transform="translate(78.660123, 9.442956)"><g><path d="M 3.90625 -6.0625 L 3.90625 -4.84375 L 1.828125 -4.84375 L 1.828125 -3.640625 L 3.8125 -3.640625 L 3.8125 -2.4375 L 1.828125 -2.4375 L 1.828125 -1.21875 L 3.90625 -1.21875 L 3.90625 0 L 0.4375 0 L 0.4375 -6.0625 Z M 3.90625 -6.0625 "></path></g></g></g><g fill="#000000" fill-opacity="1"><g transform="translate(84.780351, 9.442956)"><g><path d="M 3.671875 -1.25 C 3.878906 -1.25 4.082031 -1.28125 4.28125 -1.34375 C 4.476562 -1.40625 4.625 -1.46875 4.71875 -1.53125 L 4.859375 -1.625 L 5.4375 -0.453125 C 5.414062 -0.429688 5.390625 -0.410156 5.359375 -0.390625 C 5.328125 -0.367188 5.25 -0.320312 5.125 -0.25 C 5 -0.1875 4.863281 -0.128906 4.71875 -0.078125 C 4.582031 -0.0234375 4.394531 0.015625 4.15625 0.046875 C 3.925781 0.0859375 3.691406 0.109375 3.453125 0.109375 C 2.890625 0.109375 2.351562 -0.0234375 1.84375 -0.296875 C 1.34375 -0.578125 0.9375 -0.957031 0.625 -1.4375 C 0.320312 -1.925781 0.171875 -2.453125 0.171875 -3.015625 C 0.171875 -3.441406 0.257812 -3.847656 0.4375 -4.234375 C 0.625 -4.628906 0.863281 -4.96875 1.15625 -5.25 C 1.457031 -5.53125 1.804688 -5.753906 2.203125 -5.921875 C 2.609375 -6.085938 3.023438 -6.171875 3.453125 -6.171875 C 3.847656 -6.171875 4.207031 -6.125 4.53125 -6.03125 C 4.863281 -5.9375 5.097656 -5.84375 5.234375 -5.75 L 5.4375 -5.609375 L 4.859375 -4.4375 C 4.816406 -4.46875 4.757812 -4.503906 4.6875 -4.546875 C 4.625 -4.585938 4.488281 -4.640625 4.28125 -4.703125 C 4.082031 -4.773438 3.878906 -4.8125 3.671875 -4.8125 C 3.335938 -4.8125 3.035156 -4.753906 2.765625 -4.640625 C 2.503906 -4.535156 2.296875 -4.394531 2.140625 -4.21875 C 1.984375 -4.039062 1.863281 -3.847656 1.78125 -3.640625 C 1.707031 -3.441406 1.671875 -3.238281 1.671875 -3.03125 C 1.671875 -2.570312 1.84375 -2.160156 2.1875 -1.796875 C 2.53125 -1.429688 3.023438 -1.25 3.671875 -1.25 Z M 3.671875 -1.25 "></path></g></g></g><g fill="#000000" fill-opacity="1"><g transform="translate(92.17012, 9.442956)"><g><path d="M 3.671875 -1.25 C 3.878906 -1.25 4.082031 -1.28125 4.28125 -1.34375 C 4.476562 -1.40625 4.625 -1.46875 4.71875 -1.53125 L 4.859375 -1.625 L 5.4375 -0.453125 C 5.414062 -0.429688 5.390625 -0.410156 5.359375 -0.390625 C 5.328125 -0.367188 5.25 -0.320312 5.125 -0.25 C 5 -0.1875 4.863281 -0.128906 4.71875 -0.078125 C 4.582031 -0.0234375 4.394531 0.015625 4.15625 0.046875 C 3.925781 0.0859375 3.691406 0.109375 3.453125 0.109375 C 2.890625 0.109375 2.351562 -0.0234375 1.84375 -0.296875 C 1.34375 -0.578125 0.9375 -0.957031 0.625 -1.4375 C 0.320312 -1.925781 0.171875 -2.453125 0.171875 -3.015625 C 0.171875 -3.441406 0.257812 -3.847656 0.4375 -4.234375 C 0.625 -4.628906 0.863281 -4.96875 1.15625 -5.25 C 1.457031 -5.53125 1.804688 -5.753906 2.203125 -5.921875 C 2.609375 -6.085938 3.023438 -6.171875 3.453125 -6.171875 C 3.847656 -6.171875 4.207031 -6.125 4.53125 -6.03125 C 4.863281 -5.9375 5.097656 -5.84375 5.234375 -5.75 L 5.4375 -5.609375 L 4.859375 -4.4375 C 4.816406 -4.46875 4.757812 -4.503906 4.6875 -4.546875 C 4.625 -4.585938 4.488281 -4.640625 4.28125 -4.703125 C 4.082031 -4.773438 3.878906 -4.8125 3.671875 -4.8125 C 3.335938 -4.8125 3.035156 -4.753906 2.765625 -4.640625 C 2.503906 -4.535156 2.296875 -4.394531 2.140625 -4.21875 C 1.984375 -4.039062 1.863281 -3.847656 1.78125 -3.640625 C 1.707031 -3.441406 1.671875 -3.238281 1.671875 -3.03125 C 1.671875 -2.570312 1.84375 -2.160156 2.1875 -1.796875 C 2.53125 -1.429688 3.023438 -1.25 3.671875 -1.25 Z M 3.671875 -1.25 "></path></g></g></g><g fill="#000000" fill-opacity="1"><g transform="translate(99.559888, 9.442956)"><g><path d="M 1.828125 -6.0625 L 1.828125 0 L 0.4375 0 L 0.4375 -6.0625 Z M 1.828125 -6.0625 "></path></g></g></g><g clip-path="url(#36e28d16dd)"><g fill="#000000" fill-opacity="1"><g transform="translate(103.684065, 9.442956)"><g><path d="M 2.5 -7.171875 L 3.984375 -8.453125 L 4.65625 -7.609375 L 2.90625 -6.609375 Z M 0.171875 -3.03125 C 0.171875 -3.90625 0.46875 -4.644531 1.0625 -5.25 C 1.65625 -5.863281 2.375 -6.171875 3.21875 -6.171875 C 4.070312 -6.171875 4.789062 -5.867188 5.375 -5.265625 C 5.96875 -4.660156 6.265625 -3.914062 6.265625 -3.03125 C 6.265625 -2.144531 5.972656 -1.398438 5.390625 -0.796875 C 4.816406 -0.191406 4.09375 0.109375 3.21875 0.109375 C 2.332031 0.109375 1.601562 -0.1875 1.03125 -0.78125 C 0.457031 -1.382812 0.171875 -2.132812 0.171875 -3.03125 Z M 1.65625 -3.03125 C 1.65625 -2.71875 1.703125 -2.425781 1.796875 -2.15625 C 1.898438 -1.894531 2.070312 -1.671875 2.3125 -1.484375 C 2.5625 -1.304688 2.863281 -1.21875 3.21875 -1.21875 C 3.738281 -1.21875 4.128906 -1.394531 4.390625 -1.75 C 4.648438 -2.101562 4.78125 -2.53125 4.78125 -3.03125 C 4.78125 -3.53125 4.644531 -3.957031 4.375 -4.3125 C 4.113281 -4.664062 3.726562 -4.84375 3.21875 -4.84375 C 2.71875 -4.84375 2.332031 -4.664062 2.0625 -4.3125 C 1.789062 -3.957031 1.65625 -3.53125 1.65625 -3.03125 Z M 1.65625 -3.03125 "></path></g></g></g></g><g fill="#000000" fill-opacity="1"><g transform="translate(111.983805, 9.442956)"><g><path d="M 1.828125 -3.765625 L 1.828125 0 L 0.4375 0 L 0.4375 -6.0625 L 1.828125 -6.0625 L 4.234375 -2.296875 L 4.25 -2.296875 L 4.25 -6.0625 L 5.625 -6.0625 L 5.625 0 L 4.25 0 L 1.84375 -3.765625 Z M 1.828125 -3.765625 "></path></g></g></g><g fill="#000000" fill-opacity="1"><g transform="translate(119.909279, 9.442956)"><g></g></g></g><g fill="#000000" fill-opacity="1"><g transform="translate(123.11615, 9.442956)"><g><path d="M -0.21875 -6.0625 L 1.4375 -6.0625 L 2.703125 -4.125 L 3.96875 -6.0625 L 5.625 -6.0625 L 3.390625 -2.71875 L 3.390625 0 L 2.015625 0 L 2.015625 -2.71875 Z M -0.21875 -6.0625 "></path></g></g></g><g fill="#000000" fill-opacity="1"><g transform="translate(130.38117, 9.442956)"><g></g></g></g><g fill="#000000" fill-opacity="1"><g transform="translate(134.248495, 9.442956)"><g><path d="M 5.453125 0 L 5.15625 -3.59375 L 5.125 -3.59375 L 3.890625 -0.03125 L 3.0625 -0.03125 L 1.828125 -3.59375 L 1.78125 -3.59375 L 1.5 0 L 0.125 0 L 0.65625 -6.0625 L 2.125 -6.0625 L 3.46875 -2.5625 L 4.8125 -6.0625 L 6.28125 -6.0625 L 6.828125 0 Z M 5.453125 0 "></path></g></g></g><g fill="#000000" fill-opacity="1"><g transform="translate(143.054584, 9.442956)"><g><path d="M 3.515625 -6.0625 L 5.96875 0 L 4.484375 0 L 4.03125 -1.21875 L 1.71875 -1.21875 L 1.28125 0 L -0.203125 0 L 2.234375 -6.0625 Z M 3.5625 -2.421875 L 2.890625 -4.1875 L 2.875 -4.1875 L 2.203125 -2.421875 Z M 3.5625 -2.421875 "></path></g></g></g><g fill="#000000" fill-opacity="1"><g transform="translate(150.671848, 9.442956)"><g><path d="M 3.90625 -6.0625 L 3.90625 -4.84375 L 1.828125 -4.84375 L 1.828125 -3.640625 L 3.8125 -3.640625 L 3.8125 -2.4375 L 1.828125 -2.4375 L 1.828125 -1.21875 L 3.90625 -1.21875 L 3.90625 0 L 0.4375 0 L 0.4375 -6.0625 Z M 3.90625 -6.0625 "></path></g></g></g><g fill="#000000" fill-opacity="1"><g transform="translate(156.792076, 9.442956)"><g><path d="M 2.671875 -6.171875 C 3.003906 -6.171875 3.328125 -6.117188 3.640625 -6.015625 C 3.953125 -5.921875 4.179688 -5.832031 4.328125 -5.75 L 4.546875 -5.59375 L 4 -4.5 C 3.945312 -4.519531 3.878906 -4.550781 3.796875 -4.59375 C 3.722656 -4.644531 3.578125 -4.707031 3.359375 -4.78125 C 3.148438 -4.863281 2.953125 -4.90625 2.765625 -4.90625 C 2.535156 -4.90625 2.359375 -4.859375 2.234375 -4.765625 C 2.109375 -4.671875 2.046875 -4.539062 2.046875 -4.375 C 2.046875 -4.289062 2.070312 -4.210938 2.125 -4.140625 C 2.1875 -4.066406 2.289062 -3.988281 2.4375 -3.90625 C 2.582031 -3.832031 2.707031 -3.769531 2.8125 -3.71875 C 2.914062 -3.664062 3.082031 -3.59375 3.3125 -3.5 C 3.707031 -3.332031 4.039062 -3.101562 4.3125 -2.8125 C 4.59375 -2.53125 4.734375 -2.207031 4.734375 -1.84375 C 4.734375 -1.5 4.671875 -1.195312 4.546875 -0.9375 C 4.421875 -0.675781 4.25 -0.472656 4.03125 -0.328125 C 3.8125 -0.179688 3.566406 -0.0703125 3.296875 0 C 3.035156 0.0703125 2.753906 0.109375 2.453125 0.109375 C 2.179688 0.109375 1.914062 0.0820312 1.65625 0.03125 C 1.40625 -0.0195312 1.191406 -0.0859375 1.015625 -0.171875 C 0.847656 -0.253906 0.695312 -0.332031 0.5625 -0.40625 C 0.425781 -0.488281 0.328125 -0.554688 0.265625 -0.609375 L 0.171875 -0.6875 L 0.859375 -1.84375 C 0.921875 -1.800781 1 -1.738281 1.09375 -1.65625 C 1.195312 -1.582031 1.378906 -1.484375 1.640625 -1.359375 C 1.910156 -1.234375 2.144531 -1.171875 2.34375 -1.171875 C 2.925781 -1.171875 3.21875 -1.367188 3.21875 -1.765625 C 3.21875 -1.847656 3.195312 -1.921875 3.15625 -1.984375 C 3.113281 -2.054688 3.039062 -2.128906 2.9375 -2.203125 C 2.832031 -2.273438 2.738281 -2.332031 2.65625 -2.375 C 2.570312 -2.414062 2.4375 -2.476562 2.25 -2.5625 C 2.070312 -2.644531 1.9375 -2.710938 1.84375 -2.765625 C 1.476562 -2.941406 1.195312 -3.164062 1 -3.4375 C 0.800781 -3.707031 0.703125 -4 0.703125 -4.3125 C 0.703125 -4.863281 0.898438 -5.3125 1.296875 -5.65625 C 1.703125 -6 2.160156 -6.171875 2.671875 -6.171875 Z M 2.671875 -6.171875 "></path></g></g></g><g fill="#000000" fill-opacity="1"><g transform="translate(163.235192, 9.442956)"><g><path d="M 0.0625 -4.84375 L 0.0625 -6.0625 L 4.3125 -6.0625 L 4.3125 -4.84375 L 2.875 -4.84375 L 2.875 0 L 1.5 0 L 1.5 -4.84375 Z M 0.0625 -4.84375 "></path></g></g></g><g fill="#000000" fill-opacity="1"><g transform="translate(169.472835, 9.442956)"><g><path d="M 0.4375 -6.0625 L 2.609375 -6.0625 C 3.191406 -6.0625 3.664062 -5.90625 4.03125 -5.59375 C 4.394531 -5.28125 4.578125 -4.835938 4.578125 -4.265625 C 4.578125 -3.816406 4.46875 -3.441406 4.25 -3.140625 C 4.03125 -2.835938 3.726562 -2.625 3.34375 -2.5 L 5.421875 0 L 3.671875 0 L 1.828125 -2.390625 L 1.828125 0 L 0.4375 0 Z M 1.828125 -3.375 L 1.984375 -3.375 C 2.109375 -3.375 2.210938 -3.375 2.296875 -3.375 C 2.390625 -3.382812 2.492188 -3.398438 2.609375 -3.421875 C 2.722656 -3.453125 2.8125 -3.492188 2.875 -3.546875 C 2.945312 -3.609375 3.003906 -3.6875 3.046875 -3.78125 C 3.097656 -3.882812 3.125 -4.007812 3.125 -4.15625 C 3.125 -4.3125 3.097656 -4.4375 3.046875 -4.53125 C 3.003906 -4.632812 2.945312 -4.710938 2.875 -4.765625 C 2.8125 -4.828125 2.722656 -4.867188 2.609375 -4.890625 C 2.492188 -4.921875 2.390625 -4.9375 2.296875 -4.9375 C 2.210938 -4.945312 2.109375 -4.953125 1.984375 -4.953125 L 1.828125 -4.953125 Z M 1.828125 -3.375 "></path></g></g></g><g clip-path="url(#089f7767ad)"><g fill="#000000" fill-opacity="1"><g transform="translate(176.591084, 9.442956)"><g><path d="M 0.40625 -7.171875 L 1.90625 -8.453125 L 2.578125 -7.609375 L 0.828125 -6.609375 Z M 1.828125 -6.0625 L 1.828125 0 L 0.4375 0 L 0.4375 -6.0625 Z M 1.828125 -6.0625 "></path></g></g></g></g><g fill="#000000" fill-opacity="1"><g transform="translate(180.71526, 9.442956)"><g><path d="M 3.515625 -6.0625 L 5.96875 0 L 4.484375 0 L 4.03125 -1.21875 L 1.71875 -1.21875 L 1.28125 0 L -0.203125 0 L 2.234375 -6.0625 Z M 3.5625 -2.421875 L 2.890625 -4.1875 L 2.875 -4.1875 L 2.203125 -2.421875 Z M 3.5625 -2.421875 "></path></g></g></g></g></g><g clip-path="url(#63a12b63d5)"><g transform="matrix(1, 0, 0, 1, 196, 234)"><g clip-path="url(#f081ca676e)"><g clip-path="url(#ff892acebb)"><path stroke-linecap="round" transform="matrix(-0.0329847, 0, 0, -0.0328774, 127.165023, 128.40985)" fill="none" stroke-linejoin="round" d="M 485.1031 3879.583762 L 485.1031 486.172497 L 3839.171712 486.172497 " stroke="#000000" stroke-width="27.549999" stroke-opacity="1" stroke-miterlimit="4"></path></g><path stroke-linecap="round" transform="matrix(-0.0329847, 0, 0, -0.0328774, 127.165023, 128.40985)" fill="none" stroke-linejoin="round" d="M 575.10706 1223.405679 L 575.10706 578.965263 L 1177.896737 578.965263 " stroke="#000000" stroke-width="27.549999" stroke-opacity="1" stroke-miterlimit="4"></path><g clip-path="url(#f87d2a1731)"><path stroke-linecap="round" transform="matrix(-0.0329847, 0, 0, -0.0328774, 127.165023, 128.40985)" fill="none" stroke-linejoin="round" d="M 763.64167 120.348006 L 763.64167 764.788421 L 160.851993 764.788421 " stroke="#000000" stroke-width="27.549999" stroke-opacity="1" stroke-miterlimit="4"></path></g></g></g></g></svg>