<svg xmlns="http://www.w3.org/2000/svg"
  viewBox="0 0 200 240"
  width="200"
  height="240"
  fill="none"
  stroke="#C9A24A"
  stroke-width="1.4"
  stroke-linecap="round"
  stroke-linejoin="round"
>
  <!-- perch branch -->
  <line x1="30" y1="200" x2="175" y2="190" />
  <line x1="55" y1="205" x2="170" y2="196" />
  <line x1="150" y1="190" x2="168" y2="178" />
  <line x1="160" y1="192" x2="178" y2="184" />
  <!-- body - stylized teardrop -->
  <path d="M108 60 C78 64, 62 92, 64 130 C66 160, 82 185, 108 195 L120 195 C118 180, 122 162, 130 148 C138 134, 140 120, 134 104 C128 88, 120 74, 108 60 Z" />
  <!-- head curve -->
  <path d="M108 60 C96 54, 84 58, 78 70 C74 78, 76 86, 82 92" />
  <!-- beak -->
  <path d="M78 70 C70 72, 66 78, 68 86 C72 84, 76 82, 82 82" />
  <!-- eye -->
  <circle cx="88" cy="76" r="1.6" fill="#C9A24A" stroke="none" />
  <circle cx="88" cy="76" r="4" />
  <!-- wing feathers (layered arcs) -->
  <path d="M92 104 C104 102, 118 108, 126 120" />
  <path d="M86 120 C102 118, 120 124, 130 138" />
  <path d="M82 138 C100 136, 120 142, 132 156" />
  <path d="M80 156 C98 156, 118 162, 130 174" />
  <!-- tail -->
  <path d="M120 190 C128 200, 134 214, 136 226" />
  <path d="M112 192 C116 206, 118 218, 118 228" />
  <!-- feet suggestion -->
  <path d="M104 195 L104 202 M112 195 L112 202" />
  <!-- crest hint -->
  <path d="M110 58 C112 50, 116 46, 122 48" />
</svg>
